<svg xmlns="http://www.w3.org/2000/svg" version="1.1" xmlns:xlink="http://www.w3.org/1999/xlink" xmlns:svgjs="http://svgjs.dev/svgjs" width="1500" height="1550" viewBox="0 0 1500 1550"><g transform="matrix(1,0,0,1,-0.011670012267927632,0.6275303643724328)"><svg viewBox="0 0 239 247" data-background-color="#ffffff" preserveAspectRatio="xMidYMid meet" height="1550" width="1500" xmlns="http://www.w3.org/2000/svg" xmlns:xlink="http://www.w3.org/1999/xlink"><g id="tight-bounds" transform="matrix(1,0,0,1,0.0018594219546912427,-0.09999999999999432)"><svg viewBox="0 0 238.9962811560906 247.2" height="247.2" width="238.9962811560906"><g><svg viewBox="0 0 395.52 409.09650780776747" height="247.2" width="238.9962811560906"><g transform="matrix(1,0,0,1,0,299.7305502835391)"><svg viewBox="0 0 395.52 109.36595752422834" height="109.36595752422834" width="395.52"><g id="textblocktransform"><svg viewBox="0 0 395.52 109.36595752422834" height="109.36595752422834" width="395.52" id="textblock"><g><svg viewBox="0 0 395.52 59.594607454401256" height="59.594607454401256" width="395.52"><g transform="matrix(1,0,0,1,0,0)"><svg width="395.52" viewBox="1.05 -37.5 252.17999999999998 38" height="59.594607454401256" data-palette-color="#000000"><path d="M1.05-33.9L1.05-35 27.05-35 27.55-24.6 26.65-24.6Q24.8-30 22.38-31.95 19.95-33.9 15.15-33.9L15.15-33.9 13.75-33.9 13.75-17.65 16-17.65Q18.4-17.65 20-19.4 21.6-21.15 22.2-24.2L22.2-24.2 22.95-24.2 22.95-9.4 22.1-9.4Q21.3-13.15 19.88-14.75 18.45-16.35 16-16.35L16-16.35 13.75-16.35 13.75-1.1 19.95-1.1 19.95 0 1.05 0 1.05-1.1 4-1.1 4-33.9 1.05-33.9ZM45.8-22.4L45.8-22.4Q43.95-22.4 42.55-20 41.15-17.6 41.15-14.3L41.15-14.3 41.15-0.9 44.7-0.9 44.7 0 29.1 0 29.1-0.9 31.85-0.9 31.85-22.9 29.1-22.9 29.1-23.8 41.15-23.8 41.15-19Q41.8-21.55 43.65-22.93 45.5-24.3 47.85-24.3 50.2-24.3 51.67-22.98 53.15-21.65 53.15-19.23 53.15-16.8 52.05-15.5 50.95-14.2 48.67-14.2 46.4-14.2 45.32-15.7 44.25-17.2 45.05-19.85L45.05-19.85 46.85-19.85Q48.1-22.4 45.8-22.4ZM66.75 0.5Q60.3 0.5 57.07-2.83 53.84-6.15 53.84-12.08 53.84-18 57.47-21.15 61.09-24.3 66.69-24.3L66.69-24.3Q78.05-24.3 77.59-12.9L77.59-12.9 63.49-12.9 63.49-10.95Q63.49-6.05 64.75-3.55 66-1.05 69.09-1.05L69.09-1.05Q74.89-1.05 76.69-7.25L76.69-7.25 77.59-7.1Q76.64-3.5 74.17-1.5 71.69 0.5 66.75 0.5L66.75 0.5ZM63.55-16.35L63.55-13.9 68.69-13.9 68.69-16.35Q68.69-20.4 68.22-21.88 67.75-23.35 66.32-23.35 64.89-23.35 64.22-21.78 63.55-20.2 63.55-16.35L63.55-16.35ZM92.54 0.5Q86.09 0.5 82.87-2.83 79.64-6.15 79.64-12.08 79.64-18 83.27-21.15 86.89-24.3 92.49-24.3L92.49-24.3Q103.84-24.3 103.39-12.9L103.39-12.9 89.29-12.9 89.29-10.95Q89.29-6.05 90.54-3.55 91.79-1.05 94.89-1.05L94.89-1.05Q100.69-1.05 102.49-7.25L102.49-7.25 103.39-7.1Q102.44-3.5 99.97-1.5 97.49 0.5 92.54 0.5L92.54 0.5ZM89.34-16.35L89.34-13.9 94.49-13.9 94.49-16.35Q94.49-20.4 94.02-21.88 93.54-23.35 92.12-23.35 90.69-23.35 90.02-21.78 89.34-20.2 89.34-16.35L89.34-16.35ZM104.99-36.6L104.99-37.5 117.24-37.5 117.24-0.9 120.04-0.9 120.04 0 105.19 0 105.19-0.9 107.94-0.9 107.94-36.6 104.99-36.6ZM132.99-11.75L132.99-11.75 134.44-11.75 134.44-15.6Q134.44-20.35 133.91-21.98 133.39-23.6 131.89-23.6L131.89-23.6Q130.99-23.6 130.26-23.13 129.54-22.65 129.54-21.83 129.54-21 129.84-20.15L129.84-20.15 131.09-20.15Q131.49-19.1 131.49-17.63 131.49-16.15 130.24-15.08 128.99-14 127.09-14L127.09-14Q122.79-14 122.79-18.15L122.79-18.15Q122.79-24.3 133.24-24.3L133.24-24.3Q139.19-24.3 141.46-22.28 143.74-20.25 143.74-14.85L143.74-14.85 143.74-4.7Q143.74-2.1 145.19-2.1L145.19-2.1Q146.89-2.1 147.19-7.25L147.19-7.25 147.94-7.2Q147.74-2.8 146.29-1.15 144.84 0.5 141.54 0.5L141.54 0.5Q135.54 0.5 134.64-3.2L134.64-3.2Q133.99-1.3 132.69-0.4 131.39 0.5 128.89 0.5L128.89 0.5Q121.49 0.5 121.49-5.55L121.49-5.55Q121.49-9.1 124.31-10.43 127.14-11.75 132.99-11.75ZM130.99-5.6Q130.99-3 131.26-2.25 131.54-1.5 132.31-1.5 133.09-1.5 133.76-2.78 134.44-4.05 134.44-6.3L134.44-6.3 134.44-10.95 134.09-10.95Q130.99-10.95 130.99-6.4L130.99-6.4 130.99-5.6ZM148.53-22.9L148.53-23.8 160.59-23.8 160.59-19.2Q161.38-21.5 163.03-22.9 164.69-24.3 168.03-24.3L168.03-24.3Q175.78-24.3 175.78-15.95L175.78-15.95 175.78-0.9 178.59-0.9 178.59 0 164.44 0 164.44-0.9 166.49-0.9 166.49-17.15Q166.49-20.15 166.09-21.03 165.69-21.9 164.63-21.9L164.63-21.9Q163.03-21.9 161.81-19.8 160.59-17.7 160.59-14.7L160.59-14.7 160.59-0.9 162.74-0.9 162.74 0 148.53 0 148.53-0.9 151.28-0.9 151.28-22.9 148.53-22.9ZM193.23-23.4L193.23-23.4Q191.03-23.4 190.08-21 189.13-18.6 189.13-13.05L189.13-13.05 189.13-10.45Q189.13-5.5 190.23-3.35 191.33-1.2 194.28-1.2 197.23-1.2 198.98-3.2 200.73-5.2 201.23-7.75L201.23-7.75 202.13-7.65Q201.18-3.35 198.63-1.45L198.63-1.45Q196.03 0.5 191.48 0.5L191.48 0.5Q185.68 0.5 182.58-2.63 179.48-5.75 179.48-11.78 179.48-17.8 183.01-21.05 186.53-24.3 192.83-24.3L192.83-24.3Q197.28-24.3 199.63-22.58 201.98-20.85 201.98-18.25 201.98-15.65 200.86-14.45 199.73-13.25 197.76-13.25 195.78-13.25 194.58-14.3 193.38-15.35 193.38-17.4L193.38-17.4Q193.38-18.3 193.63-19.2L193.63-19.2 195.28-19.2Q195.63-20.2 195.63-21L195.63-21Q195.63-23.4 193.23-23.4ZM216.53 0.5Q210.08 0.5 206.86-2.83 203.63-6.15 203.63-12.08 203.63-18 207.26-21.15 210.88-24.3 216.48-24.3L216.48-24.3Q227.83-24.3 227.38-12.9L227.38-12.9 213.28-12.9 213.28-10.95Q213.28-6.05 214.53-3.55 215.78-1.05 218.88-1.05L218.88-1.05Q224.68-1.05 226.48-7.25L226.48-7.25 227.38-7.1Q226.43-3.5 223.96-1.5 221.48 0.5 216.53 0.5L216.53 0.5ZM213.33-16.35L213.33-13.9 218.48-13.9 218.48-16.35Q218.48-20.4 218.01-21.88 217.53-23.35 216.11-23.35 214.68-23.35 214.01-21.78 213.33-20.2 213.33-16.35L213.33-16.35ZM245.88-22.4L245.88-22.4Q244.03-22.4 242.63-20 241.23-17.6 241.23-14.3L241.23-14.3 241.23-0.9 244.78-0.9 244.78 0 229.18 0 229.18-0.9 231.93-0.9 231.93-22.9 229.18-22.9 229.18-23.8 241.23-23.8 241.23-19Q241.88-21.55 243.73-22.93 245.58-24.3 247.93-24.3 250.28-24.3 251.75-22.98 253.23-21.65 253.23-19.23 253.23-16.8 252.13-15.5 251.03-14.2 248.75-14.2 246.48-14.2 245.4-15.7 244.33-17.2 245.13-19.85L245.13-19.85 246.93-19.85Q248.18-22.4 245.88-22.4Z" opacity="1" transform="matrix(1,0,0,1,0,0)" fill="#000000" class="wordmark-text-0" data-fill-palette-color="primary" id="text-0"></path></svg></g></svg></g><g transform="matrix(1,0,0,1,0,73.66346400380648)"><svg viewBox="0 0 395.52 35.70249352042185" height="35.70249352042185" width="395.52"><g transform="matrix(1,0,0,1,0,0)"><svg width="395.52" viewBox="0.35 -39.65 559.38 50.5" height="35.70249352042185" data-palette-color="#89939e"><path d="M12.55-33.05Q11.15-33.05 10.48-32.3 9.8-31.55 9.8-30L9.8-30 9.8-26.45 14.85-26.45 14.15-22 9.8-22 9.8 0 3.65 0 3.65-22 0.35-22 0.35-26.45 3.65-26.45 3.65-29.8Q3.65-33.4 5.75-35.55 7.85-37.7 11.75-37.7L11.75-37.7Q14.8-37.7 17.65-36.2L17.65-36.2 15.95-32.2Q14.2-33.05 12.55-33.05L12.55-33.05ZM34.55-6.4Q34.55-5.1 34.9-4.48 35.25-3.85 36.05-3.45L36.05-3.45 34.8 0.65Q32.75 0.4 31.52-0.45 30.3-1.3 29.7-3.05L29.7-3.05Q27.4 0.75 23.25 0.75L23.25 0.75Q19.95 0.75 18-1.48 16.05-3.7 16.05-7.4L16.05-7.4Q16.05-11.7 18.72-13.95 21.4-16.2 26.5-16.2L26.5-16.2 28.55-16.2 28.55-18.05Q28.55-20.55 27.67-21.58 26.8-22.6 24.85-22.6L24.85-22.6Q22.5-22.6 19-21.3L19-21.3 17.6-25.3Q19.6-26.2 21.75-26.68 23.9-27.15 25.85-27.15L25.85-27.15Q34.55-27.15 34.55-18.35L34.55-18.35 34.55-6.4ZM24.9-3.7Q27.3-3.7 28.55-7L28.55-7 28.55-12.55 27.1-12.55Q24.55-12.55 23.37-11.4 22.2-10.25 22.2-7.85L22.2-7.85Q22.2-5.8 22.9-4.75 23.6-3.7 24.9-3.7L24.9-3.7ZM47.7-27.15Q52.4-27.15 55.65-24.05L55.65-24.05 53.3-20.7Q51.9-21.7 50.65-22.2 49.4-22.7 48.1-22.7L48.1-22.7Q46.65-22.7 45.82-21.93 45-21.15 45-19.8L45-19.8Q45-18.45 45.92-17.63 46.85-16.8 49.65-15.7L49.65-15.7Q53.1-14.35 54.75-12.5 56.4-10.65 56.4-7.55L56.4-7.55Q56.4-3.7 53.7-1.48 51 0.75 46.85 0.75L46.85 0.75Q44.15 0.75 41.87-0.23 39.6-1.2 37.9-2.95L37.9-2.95 40.9-6.25Q43.7-3.8 46.6-3.8L46.6-3.8Q48.25-3.8 49.2-4.67 50.15-5.55 50.15-7.1L50.15-7.1Q50.15-8.25 49.75-8.97 49.35-9.7 48.35-10.33 47.35-10.95 45.35-11.7L45.35-11.7Q41.9-13.05 40.42-14.85 38.95-16.65 38.95-19.45L38.95-19.45Q38.95-22.8 41.32-24.98 43.7-27.15 47.7-27.15L47.7-27.15ZM71.39-5L73.54-1.2Q71.09 0.75 67.79 0.75L67.79 0.75Q64.34 0.75 62.54-1.23 60.74-3.2 60.74-6.6L60.74-6.6 60.74-22 57.64-22 57.64-26.45 60.74-26.45 60.74-32.3 66.89-33.05 66.89-26.45 71.89-26.45 71.29-22 66.89-22 66.89-6.6Q66.89-4.2 68.94-4.2L68.94-4.2Q69.59-4.2 70.09-4.38 70.59-4.55 71.39-5L71.39-5ZM102.84-6.4Q102.84-5.1 103.19-4.48 103.54-3.85 104.34-3.45L104.34-3.45 103.09 0.65Q101.04 0.4 99.81-0.45 98.59-1.3 97.99-3.05L97.99-3.05Q95.69 0.75 91.54 0.75L91.54 0.75Q88.24 0.75 86.29-1.48 84.34-3.7 84.34-7.4L84.34-7.4Q84.34-11.7 87.01-13.95 89.69-16.2 94.79-16.2L94.79-16.2 96.84-16.2 96.84-18.05Q96.84-20.55 95.96-21.58 95.09-22.6 93.14-22.6L93.14-22.6Q90.79-22.6 87.29-21.3L87.29-21.3 85.89-25.3Q87.89-26.2 90.04-26.68 92.19-27.15 94.14-27.15L94.14-27.15Q102.84-27.15 102.84-18.35L102.84-18.35 102.84-6.4ZM93.19-3.7Q95.59-3.7 96.84-7L96.84-7 96.84-12.55 95.39-12.55Q92.84-12.55 91.66-11.4 90.49-10.25 90.49-7.85L90.49-7.85Q90.49-5.8 91.19-4.75 91.89-3.7 93.19-3.7L93.19-3.7ZM120.99-27.15Q123.84-27.15 125.49-25.1 127.14-23.05 127.14-19.6L127.14-19.6 127.14 0 120.99 0 120.99-18.9Q120.99-20.8 120.46-21.63 119.94-22.45 118.94-22.45L118.94-22.45Q116.84-22.45 114.79-18.5L114.79-18.5 114.79 0 108.64 0 108.64-26.45 113.99-26.45 114.44-23Q115.79-25.1 117.31-26.13 118.84-27.15 120.99-27.15L120.99-27.15ZM145.63-37.7L151.78-37.05 151.78 0 146.33 0 146.03-3.05Q143.68 0.75 139.98 0.75L139.98 0.75Q135.88 0.75 133.71-2.93 131.53-6.6 131.53-13.2L131.53-13.2Q131.53-17.4 132.66-20.58 133.78-23.75 135.78-25.45 137.78-27.15 140.38-27.15L140.38-27.15Q143.58-27.15 145.63-24.5L145.63-24.5 145.63-37.7ZM141.73-3.9Q142.88-3.9 143.81-4.7 144.73-5.5 145.63-7L145.63-7 145.63-19.85Q144.03-22.55 141.98-22.55L141.98-22.55Q137.93-22.55 137.93-13.25L137.93-13.25Q137.93-8.2 138.93-6.05 139.93-3.9 141.73-3.9L141.73-3.9ZM179.48-27.15Q183.33-27.15 185.38-23.65 187.43-20.15 187.43-13.25L187.43-13.25Q187.43-6.75 185.13-3 182.83 0.75 178.83 0.75L178.83 0.75Q177.08 0.75 175.63-0.13 174.18-1 173.13-2.55L173.13-2.55 172.78 0 167.33 0 167.33-37 173.48-37.65 173.48-23.6Q174.53-25.3 176.05-26.23 177.58-27.15 179.48-27.15L179.48-27.15ZM177.18-3.9Q179.03-3.9 180.05-6 181.08-8.1 181.08-13.25L181.08-13.25Q181.08-18.6 180.15-20.58 179.23-22.55 177.53-22.55L177.53-22.55Q176.38-22.55 175.33-21.6 174.28-20.65 173.48-19.1L173.48-19.1 173.48-6.7Q174.13-5.45 175.1-4.67 176.08-3.9 177.18-3.9L177.18-3.9ZM210.88-13.85Q210.88-13.4 210.73-11.3L210.73-11.3 197.08-11.3Q197.28-7.2 198.5-5.58 199.73-3.95 201.98-3.95L201.98-3.95Q203.53-3.95 204.78-4.48 206.03-5 207.48-6.15L207.48-6.15 210.03-2.65Q206.53 0.75 201.63 0.75L201.63 0.75Q196.43 0.75 193.65-2.85 190.88-6.45 190.88-13L190.88-13Q190.88-19.55 193.53-23.35 196.18-27.15 201.03-27.15L201.03-27.15Q205.68-27.15 208.28-23.78 210.88-20.4 210.88-13.85L210.88-13.85ZM204.88-15.3L204.88-15.65Q204.88-19.4 203.98-21.13 203.08-22.85 201.08-22.85L201.08-22.85Q199.23-22.85 198.25-21.18 197.28-19.5 197.08-15.3L197.08-15.3 204.88-15.3ZM232.07-6.4Q232.07-5.1 232.42-4.48 232.77-3.85 233.57-3.45L233.57-3.45 232.32 0.65Q230.27 0.4 229.05-0.45 227.82-1.3 227.22-3.05L227.22-3.05Q224.92 0.75 220.77 0.75L220.77 0.75Q217.47 0.75 215.52-1.48 213.57-3.7 213.57-7.4L213.57-7.4Q213.57-11.7 216.25-13.95 218.92-16.2 224.02-16.2L224.02-16.2 226.07-16.2 226.07-18.05Q226.07-20.55 225.2-21.58 224.32-22.6 222.37-22.6L222.37-22.6Q220.02-22.6 216.52-21.3L216.52-21.3 215.12-25.3Q217.12-26.2 219.27-26.68 221.42-27.15 223.37-27.15L223.37-27.15Q232.07-27.15 232.07-18.35L232.07-18.35 232.07-6.4ZM222.42-3.7Q224.82-3.7 226.07-7L226.07-7 226.07-12.55 224.62-12.55Q222.07-12.55 220.9-11.4 219.72-10.25 219.72-7.85L219.72-7.85Q219.72-5.8 220.42-4.75 221.12-3.7 222.42-3.7L222.42-3.7ZM256.02-26.45L256.02 0 250.67 0 250.37-3.35Q249.12-1.3 247.57-0.28 246.02 0.75 243.97 0.75L243.97 0.75Q241.07 0.75 239.4-1.3 237.72-3.35 237.72-6.65L237.72-6.65 237.72-26.45 243.87-26.45 243.87-7Q243.87-3.9 245.97-3.9L245.97-3.9Q247.17-3.9 248.12-4.83 249.07-5.75 249.87-7.45L249.87-7.45 249.87-26.45 256.02-26.45ZM272.87-5L275.02-1.2Q272.57 0.75 269.27 0.75L269.27 0.75Q265.82 0.75 264.02-1.23 262.22-3.2 262.22-6.6L262.22-6.6 262.22-22 259.12-22 259.12-26.45 262.22-26.45 262.22-32.3 268.37-33.05 268.37-26.45 273.37-26.45 272.77-22 268.37-22 268.37-6.6Q268.37-4.2 270.42-4.2L270.42-4.2Q271.07-4.2 271.57-4.38 272.07-4.55 272.87-5L272.87-5ZM277.57-26.45L283.72-26.45 283.72 0 277.57 0 277.57-26.45ZM280.62-39.65Q282.27-39.65 283.29-38.6 284.32-37.55 284.32-35.9L284.32-35.9Q284.32-34.3 283.29-33.25 282.27-32.2 280.62-32.2L280.62-32.2Q278.97-32.2 277.94-33.25 276.92-34.3 276.92-35.9L276.92-35.9Q276.92-37.55 277.94-38.6 278.97-39.65 280.62-39.65L280.62-39.65ZM299.11-33.05Q297.71-33.05 297.04-32.3 296.36-31.55 296.36-30L296.36-30 296.36-26.45 301.41-26.45 300.71-22 296.36-22 296.36 0 290.21 0 290.21-22 286.91-22 286.91-26.45 290.21-26.45 290.21-29.8Q290.21-33.4 292.31-35.55 294.41-37.7 298.31-37.7L298.31-37.7Q301.36-37.7 304.21-36.2L304.21-36.2 302.51-32.2Q300.76-33.05 299.11-33.05L299.11-33.05ZM322.36-26.45L322.36 0 317.01 0 316.71-3.35Q315.46-1.3 313.91-0.28 312.36 0.75 310.31 0.75L310.31 0.75Q307.41 0.75 305.74-1.3 304.06-3.35 304.06-6.65L304.06-6.65 304.06-26.45 310.21-26.45 310.21-7Q310.21-3.9 312.31-3.9L312.31-3.9Q313.51-3.9 314.46-4.83 315.41-5.75 316.21-7.45L316.21-7.45 316.21-26.45 322.36-26.45ZM333.66 0.75Q330.96 0.75 329.38-0.93 327.81-2.6 327.81-5.4L327.81-5.4 327.81-37.05 333.96-37.7 333.96-5.65Q333.96-5 334.26-4.6 334.56-4.2 335.16-4.2L335.16-4.2Q335.51-4.2 335.83-4.3 336.16-4.4 336.26-4.4L336.26-4.4 337.46-0.2Q335.76 0.75 333.66 0.75L333.66 0.75ZM372.4-26.45L378.1-26.45 373.55 0 366.05 0 363.1-20.85 360.2 0 352.75 0 348.1-26.45 354.05-26.45 356.75-4.6 360.1-26.45 366.35-26.45 369.55-4.6 372.4-26.45ZM400.45-13.85Q400.45-13.4 400.3-11.3L400.3-11.3 386.65-11.3Q386.85-7.2 388.08-5.58 389.3-3.95 391.55-3.95L391.55-3.95Q393.1-3.95 394.35-4.48 395.6-5 397.05-6.15L397.05-6.15 399.6-2.65Q396.1 0.75 391.2 0.75L391.2 0.75Q386 0.75 383.23-2.85 380.45-6.45 380.45-13L380.45-13Q380.45-19.55 383.1-23.35 385.75-27.15 390.6-27.15L390.6-27.15Q395.25-27.15 397.85-23.78 400.45-20.4 400.45-13.85L400.45-13.85ZM394.45-15.3L394.45-15.65Q394.45-19.4 393.55-21.13 392.65-22.85 390.65-22.85L390.65-22.85Q388.8-22.85 387.83-21.18 386.85-19.5 386.65-15.3L386.65-15.3 394.45-15.3ZM416.9-27.15Q420.75-27.15 422.8-23.65 424.85-20.15 424.85-13.25L424.85-13.25Q424.85-6.75 422.55-3 420.25 0.75 416.25 0.75L416.25 0.75Q414.5 0.75 413.05-0.13 411.6-1 410.55-2.55L410.55-2.55 410.2 0 404.75 0 404.75-37 410.9-37.65 410.9-23.6Q411.95-25.3 413.47-26.23 415-27.15 416.9-27.15L416.9-27.15ZM414.6-3.9Q416.45-3.9 417.47-6 418.5-8.1 418.5-13.25L418.5-13.25Q418.5-18.6 417.57-20.58 416.65-22.55 414.95-22.55L414.95-22.55Q413.8-22.55 412.75-21.6 411.7-20.65 410.9-19.1L410.9-19.1 410.9-6.7Q411.55-5.45 412.52-4.67 413.5-3.9 414.6-3.9L414.6-3.9ZM452.24-37.7L458.39-37.05 458.39 0 452.94 0 452.64-3.05Q450.29 0.75 446.59 0.75L446.59 0.75Q442.49 0.75 440.32-2.93 438.14-6.6 438.14-13.2L438.14-13.2Q438.14-17.4 439.27-20.58 440.39-23.75 442.39-25.45 444.39-27.15 446.99-27.15L446.99-27.15Q450.19-27.15 452.24-24.5L452.24-24.5 452.24-37.7ZM448.34-3.9Q449.49-3.9 450.42-4.7 451.34-5.5 452.24-7L452.24-7 452.24-19.85Q450.64-22.55 448.59-22.55L448.59-22.55Q444.54-22.55 444.54-13.25L444.54-13.25Q444.54-8.2 445.54-6.05 446.54-3.9 448.34-3.9L448.34-3.9ZM482.94-13.85Q482.94-13.4 482.79-11.3L482.79-11.3 469.14-11.3Q469.34-7.2 470.57-5.58 471.79-3.95 474.04-3.95L474.04-3.95Q475.59-3.95 476.84-4.48 478.09-5 479.54-6.15L479.54-6.15 482.09-2.65Q478.59 0.75 473.69 0.75L473.69 0.75Q468.49 0.75 465.72-2.85 462.94-6.45 462.94-13L462.94-13Q462.94-19.55 465.59-23.35 468.24-27.15 473.09-27.15L473.09-27.15Q477.74-27.15 480.34-23.78 482.94-20.4 482.94-13.85L482.94-13.85ZM476.94-15.3L476.94-15.65Q476.94-19.4 476.04-21.13 475.14-22.85 473.14-22.85L473.14-22.85Q471.29-22.85 470.32-21.18 469.34-19.5 469.14-15.3L469.14-15.3 476.94-15.3ZM494.59-27.15Q499.29-27.15 502.54-24.05L502.54-24.05 500.19-20.7Q498.79-21.7 497.54-22.2 496.29-22.7 494.99-22.7L494.99-22.7Q493.54-22.7 492.71-21.93 491.89-21.15 491.89-19.8L491.89-19.8Q491.89-18.45 492.81-17.63 493.74-16.8 496.54-15.7L496.54-15.7Q499.99-14.35 501.64-12.5 503.29-10.65 503.29-7.55L503.29-7.55Q503.29-3.7 500.59-1.48 497.89 0.75 493.74 0.75L493.74 0.75Q491.04 0.75 488.76-0.23 486.49-1.2 484.79-2.95L484.79-2.95 487.79-6.25Q490.59-3.8 493.49-3.8L493.49-3.8Q495.14-3.8 496.09-4.67 497.04-5.55 497.04-7.1L497.04-7.1Q497.04-8.25 496.64-8.97 496.24-9.7 495.24-10.33 494.24-10.95 492.24-11.7L492.24-11.7Q488.79-13.05 487.31-14.85 485.84-16.65 485.84-19.45L485.84-19.45Q485.84-22.8 488.21-24.98 490.59-27.15 494.59-27.15L494.59-27.15ZM507.14-26.45L513.29-26.45 513.29 0 507.14 0 507.14-26.45ZM510.19-39.65Q511.84-39.65 512.86-38.6 513.89-37.55 513.89-35.9L513.89-35.9Q513.89-34.3 512.86-33.25 511.84-32.2 510.19-32.2L510.19-32.2Q508.54-32.2 507.51-33.25 506.49-34.3 506.49-35.9L506.49-35.9Q506.49-37.55 507.51-38.6 508.54-39.65 510.19-39.65L510.19-39.65ZM536.93-29.85L538.48-25.1Q537.43-24.6 535.96-24.4 534.48-24.2 532.28-24.2L532.28-24.2Q534.38-23.2 535.41-21.53 536.43-19.85 536.43-17.4L536.43-17.4Q536.43-13.4 533.98-10.95 531.53-8.5 527.33-8.5L527.33-8.5Q526.08-8.5 524.78-8.9L524.78-8.9Q523.88-8.15 523.88-6.85L523.88-6.85Q523.88-5.85 524.43-5.35 524.98-4.85 526.48-4.85L526.48-4.85 529.28-4.85Q533.28-4.85 535.63-2.78 537.98-0.7 537.98 2.5L537.98 2.5Q537.98 6.3 535.06 8.58 532.13 10.85 526.73 10.85L526.73 10.85Q521.03 10.85 518.76 8.75 516.48 6.65 516.48 2.6L516.48 2.6 521.93 2.6Q521.93 4.75 522.93 5.65 523.93 6.55 526.78 6.55L526.78 6.55Q529.53 6.55 530.68 5.6 531.83 4.65 531.83 2.9L531.83 2.9Q531.83 1.2 530.88 0.4 529.93-0.4 527.93-0.4L527.93-0.4 526.03-0.4Q522.23-0.4 520.48-1.75 518.73-3.1 518.73-5.45L518.73-5.45Q518.73-6.8 519.46-8.03 520.18-9.25 521.43-10.2L521.43-10.2Q519.38-11.5 518.43-13.3 517.48-15.1 517.48-17.7L517.48-17.7Q517.48-22.05 520.08-24.58 522.68-27.1 527.08-27.1L527.08-27.1Q530.33-27.1 532.46-27.8 534.58-28.5 536.93-29.85L536.93-29.85ZM527.08-23Q525.33-23 524.43-21.75 523.53-20.5 523.53-17.8L523.53-17.8Q523.53-15.25 524.43-13.88 525.33-12.5 527.03-12.5L527.03-12.5Q528.78-12.5 529.63-13.73 530.48-14.95 530.48-17.85L530.48-17.85Q530.48-20.55 529.66-21.78 528.83-23 527.08-23L527.08-23ZM553.58-27.15Q556.43-27.15 558.08-25.1 559.73-23.05 559.73-19.6L559.73-19.6 559.73 0 553.58 0 553.58-18.9Q553.58-20.8 553.05-21.63 552.53-22.45 551.53-22.45L551.53-22.45Q549.43-22.45 547.38-18.5L547.38-18.5 547.38 0 541.23 0 541.23-26.45 546.58-26.45 547.03-23Q548.38-25.1 549.9-26.13 551.43-27.15 553.58-27.15L553.58-27.15Z" opacity="1" transform="matrix(1,0,0,1,0,0)" fill="#89939e" class="slogan-text-1" data-fill-palette-color="secondary" id="text-1"></path></svg></g></svg></g></svg></g></svg></g><g transform="matrix(1,0,0,1,60.224632522443244,0)"><svg viewBox="0 0 275.0707349551135 285.6616937341339" height="285.6616937341339" width="275.0707349551135"><g><svg xmlns="http://www.w3.org/2000/svg" xml:space="preserve" viewBox="3.4000000000000004 1.5 93.5 97.1" x="0" y="0" height="285.6616937341339" width="275.0707349551135" class="icon-icon-0" data-fill-palette-color="accent" id="icon-0"><path d="M66.4 38.8h-2.6c-2.9 2.7-7.6 4.5-12.9 4.5s-10-1.8-12.9-4.5h-2c-9.5 0-17.1 5.8-17.1 12.9h63.8c0.1-7.1-7.3-12.9-16.3-12.9" fill="#000000" data-fill-palette-color="accent"></path><path d="M50.8 1.5c-10.6 0-19.2 8.6-19.2 19.2s8.6 19.2 19.2 19.2S70 31.3 70 20.7 61.4 1.5 50.8 1.5m0 34.1c-8.2 0-14.9-6.7-14.9-14.9 0-1.3 0.2-2.5 0.5-3.6 1.8 0.9 4.9 2.1 8.5 2.1 2.6 0 5.4-0.6 8.1-2.5 0.3-0.2 6.8-4.9 12.1-0.2 0.4 1.3 0.6 2.8 0.6 4.3 0 8.1-6.7 14.8-14.9 14.8M95.9 96.5H85.3c0.7-0.9 1.1-2 1.1-3.2V58.9c0-2.9-2.4-5.2-5.2-5.2H20.4c-2.9 0-5.2 2.4-5.2 5.2v34.4c0 1.2 0.4 2.3 1.1 3.2H4.4c-0.6 0-1 0.5-1 1v0.1c0 0.6 0.5 1 1 1h91.5c0.6 0 1-0.5 1-1v-0.1c0-0.6-0.5-1-1-1M43.1 64.8c1.9-1.9 4.4-3 7.1-3s5.2 1 7.1 2.9c0.3 0.3 0.3 0.9 0 1.2q-0.3 0.3-0.6 0.3c-0.2 0-0.5-0.1-0.6-0.3-1.6-1.6-3.7-2.4-5.9-2.4s-4.3 0.9-5.9 2.5q-0.3 0.3-0.6 0.3-0.45 0-0.6-0.3c-0.3-0.3-0.3-0.8 0-1.2m7.2 2.7c-0.9 0-1.8 0.4-2.5 1q-0.3 0.3-0.6 0.3c-0.2 0-0.5-0.1-0.6-0.3q-0.3-0.3-0.3-0.6c0-0.2 0.1-0.5 0.3-0.6 1-1 2.3-1.5 3.7-1.5s2.7 0.5 3.7 1.5q0.3 0.3 0.3 0.6c0 0.2-0.1 0.5-0.3 0.6q-0.3 0.3-0.6 0.3c-0.2 0-0.5-0.1-0.6-0.3-0.8-0.6-1.6-1-2.5-1m1.1 3.3c0 0.3-0.1 0.6-0.3 0.8s-0.5 0.3-0.8 0.3c-0.6 0-1.1-0.5-1.1-1.1s0.5-1.1 1.1-1.1 1.1 0.4 1.1 1.1m7.7 16.4c0 1.3-1 2.4-2.2 2.4h-13c-1.2 0-2.2-1.1-2.2-2.4V85H40c-1.1 0-2.1-0.9-2.1-2.1v-4.4c0-1.1 0.9-2.1 2.1-2.1h1.8V74h17.4v13.2z" fill="#000000" data-fill-palette-color="accent"></path><path d="M39.5 78.6V83c0 0.2 0.2 0.4 0.4 0.4h1.8V78H40c-0.3 0.1-0.5 0.3-0.5 0.6" fill="#000000" data-fill-palette-color="accent"></path></svg></g></svg></g><g></g></svg></g><defs></defs></svg><rect width="238.9962811560906" height="247.2" fill="none" stroke="none" visibility="hidden"></rect></g></svg></g></svg>